# xmcd
# Track frame offsets:
# 182
# 21157
# 40132
# 61582
# 71782
# 90007
# 109057
# 129307
# 141082
# 153907
# 170257
#
# Disc length: 2625 seconds
# Revision: 0
# Processed by: cddbd v1.4PL0 Copyright (c) Steve Scherf et al.
# Submitted via: VisiTrax 2.9.5.181 - For more info visit www.synapsa.com
#
DISCID=800a3f0b
DTITLE=Brownie McGhee with The Elmer Lee Thomas Blues Revue - Brownie's Blues
DYEAR=1997
DGENRE=Blues
TTITLE0=John Henry
TTITLE1=Good Morning Blues
TTITLE2=Stranger Blues
TTITLE3=Pick A Bale Of Cotton
TTITLE4=Drinking Wine
TTITLE5=Just A Dream
TTITLE6=Walk On
TTITLE7=Rock Island Line
TTITLE8=Christine
TTITLE9=Jump Little Children, Jump
TTITLE10=Rainey Day
EXTD=
EXTT0=
EXTT1=
EXTT2=
EXTT3=
EXTT4=
EXTT5=
EXTT6=
EXTT7=
EXTT8=
EXTT9=
EXTT10=
PLAYORDER=
